<?xml version="1.0" encoding="UTF-8" standalone="no"?><!DOCTYPE svg PUBLIC "-//W3C//DTD SVG 1.1//EN" "http://www.w3.org/Graphics/SVG/1.1/DTD/svg11.dtd"><svg width="100%" height="100%" viewBox="0 0 384 512" version="1.1" xmlns="http://www.w3.org/2000/svg" xmlns:xlink="http://www.w3.org/1999/xlink" xml:space="preserve" xmlns:serif="http://www.serif.com/" style="fill-rule:evenodd;clip-rule:evenodd;stroke-linejoin:round;stroke-miterlimit:1.41421;"><path d="M293.7,300l-181.2,-84.5l16.7,-36.5l181.3,84.7l-16.8,36.3Zm48,-76l-153.5,-128.3l-25.5,30.8l153.5,128.3l25.5,-30.8Zm39.6,-31.7l-119.3,-160.3l-32,24l119.3,160.3l32,-24Zm-90.6,118.7l-195.7,-41.3l-8.2,39.3l195.7,41l8.2,-39Zm31.6,129l-279.6,0l0,-120l-40,0l0,160l359.5,0l0,-160l-40,0l0,120l0.1,0Zm-39.8,-80l-200,0l0,39.7l200,0l0,-39.7Z" style="fill:#707070;fill-rule:nonzero;"/></svg>